<?xml version="1.0" encoding="UTF-8" standalone="no" ?>
<!DOCTYPE svg PUBLIC "-//W3C//DTD SVG 1.1//EN" "http://www.w3.org/Graphics/SVG/1.1/DTD/svg11.dtd">
<svg xmlns="http://www.w3.org/2000/svg" xmlns:xlink="http://www.w3.org/1999/xlink" version="1.1" width="700" height="700" viewBox="43.85 43.85 700 700" xml:space="preserve">
<desc>Created with Fabric.js 5.2.4</desc>
<defs>
</defs>
<rect x="0" y="0" width="100%" height="100%" fill="transparent"></rect>
<g transform="matrix(0 0 0 0 0 0)" id="ba8a41dc-218f-4275-ade4-922b610ae190"  >
</g>
<g transform="matrix(1 0 0 1 350 350)" id="f5fee19b-3177-4125-9f54-1dc0f5b6d082"  >
<rect style="stroke: none; stroke-width: 1; stroke-dasharray: none; stroke-linecap: butt; stroke-dashoffset: 0; stroke-linejoin: miter; stroke-miterlimit: 4; fill: rgb(255,255,255); fill-rule: nonzero; opacity: 1; visibility: hidden;" vector-effect="non-scaling-stroke"  x="-350" y="-350" rx="0" ry="0" width="700" height="700" />
</g>
<g transform="matrix(2.92 0 0 2.92 374.88 308.67)"  >
<path style="stroke: rgb(0,0,0); stroke-width: 0; stroke-dasharray: none; stroke-linecap: butt; stroke-dashoffset: 0; stroke-linejoin: miter; stroke-miterlimit: 4; fill: rgb(252,227,143); fill-rule: nonzero; opacity: 1;" vector-effect="non-scaling-stroke"  transform=" translate(-50, -46.77)" d="M 95 8.539 L 53 22.986 L 53 73.27 C 51.168 72.40599999999999 48.730000000000004 72.26899999999999 46.306 73.077 C 42.114 74.474 39.565999999999995 78.155 40.614 81.29899999999999 C 41.662 84.44299999999998 45.909 85.85799999999999 50.101 84.461 C 53.842999999999996 83.214 56.266999999999996 80.14699999999999 56 77.26599999999999 L 56 32 L 92 19.603 L 92 52.284 C 90.165 51.408 87.714 51.265 85.278 52.077 C 81.08600000000001 53.474 78.53800000000001 57.155 79.58600000000001 60.299 C 80.63400000000001 63.443 84.88100000000001 64.858 89.07300000000001 63.461 C 92.59800000000001 62.286 94.95100000000001 59.495999999999995 94.99100000000001 56.769 L 95 56.769 L 95 8.539 z M 19 9 L 19 52 C 17.131 51.108 14.519 51.029 12.036999999999999 51.857 C 7.767999999999999 53.28 5.171999999999999 57.028999999999996 6.238999999999999 60.231 C 7.305999999999999 63.43300000000001 11.631999999999998 64.875 15.902 63.452 C 19.491999999999997 62.254999999999995 21.948999999999998 59.414 21.988999999999997 56.635999999999996 L 22 56.635999999999996 L 22 23 C 22 23 34.926 26.741 39 41 C 39 24.704 25 22 19 9 z M 37.423 79 L 2 79 L 2 81 L 37.476 81 C 37.37199439004023 80.33842349389403 37.3541793121315 79.66615640299842 37.423 79 z M 98 81 L 98 79 L 58.9 79 C 58.78428537695448 79.68803986407757 58.585846831866974 80.35957470362918 58.309 81 L 98 81 z M 5.078 64 L 2 64 L 2 66 L 7.87 66 C 6.789 65.499 5.8420000000000005 64.824 5.078 64 z M 98 66 L 98 64 L 94.231 64 C 93.253 64.804 92.119 65.487 90.854 66 L 98 66 z M 78.401 64 L 59 64 L 59 66 L 81.155 66 C 80.11480642046814 65.52024970203348 79.1790661541085 64.84069976277449 78.401 64 z M 21.09 64 C 20.051406583273096 64.83355259401294 18.89435804715239 65.50762689411239 17.657 66 L 50 66 L 50 64 L 21.09 64 z M 25 49 L 50 49 L 50 51 L 25 51 z M 11.125 49 L 2 49 L 2 51 L 7.25 51 C 8.356 50.175 9.645 49.492 11.089 49.01 C 11.101 49.006 11.113 49.004 11.125 49 z M 59 51 L 80.822 51 C 81.89850637873963 50.242513654415596 83.08000927786736 49.646540278722135 84.32900000000001 49.231 L 85.12500000000001 49 L 59 49 L 59 51 z M 32.25 34 L 25 34 L 25 36 L 33.595 36 C 33.168 35.288 32.717999999999996 34.622 32.25 34 z M 2 34 L 16 34 L 16 36 L 2 36 z M 59 36 L 89 36 L 89 34 L 59.406 34 L 59 34.14 z M 41.551 36 L 50 36 L 50 34 L 41.102000000000004 34 L 41.551 36 z M 32.734 21 L 50.762 21 C 51.10248947268914 20.612073554788868 51.537603764055525 20.318896783646515 52.025 20.149 L 55.366 19 L 30.686 19 L 32.734 21 z M 2 19 L 16 19 L 16 21 L 2 21 z" stroke-linecap="round" />
</g>
<g transform="matrix(0.65 0 0 0.65 409.59 495)" style="" id="88b5ce0d-a987-49d1-b83e-9f276625262b"  >
		<text xml:space="preserve" font-family="Alegreya" font-size="151" font-style="normal" font-weight="700" style="stroke: none; stroke-width: 1; stroke-dasharray: none; stroke-linecap: butt; stroke-dashoffset: 0; stroke-linejoin: miter; stroke-miterlimit: 4; fill: rgb(255,221,118); fill-rule: nonzero; opacity: 1; white-space: pre;" ><tspan x="-376.59" y="47.44" >sumGeetha.</tspan></text>
</g>
<g transform="matrix(0 0 0 0 38.33 202.26)"  >
<g style=""   >
</g>
</g>
</svg>